<svg width="54" height="54" viewBox="0 0 54 54" fill="none" xmlns="http://www.w3.org/2000/svg">
<g clip-path="url(#clip0_2_151)">
<path d="M26.88 40.32C19.4573 40.32 13.44 46.3373 13.44 53.76H0C0 38.9147 12.0347 26.88 26.88 26.88V40.32ZM53.76 26.88C53.76 41.7253 41.7253 53.76 26.88 53.76V40.32C34.3027 40.32 40.32 34.3027 40.32 26.88H53.76ZM26.88 13.44C19.4573 13.44 13.44 19.4573 13.44 26.88H0C0 12.0347 12.0347 0 26.88 0V13.44ZM53.76 0C53.76 14.8453 41.7253 26.88 26.88 26.88V13.44C34.3027 13.44 40.32 7.42266 40.32 0H53.76Z" fill="#0A0A0A"/>
</g>
<defs>
<clipPath id="clip0_2_151">
<rect width="53.76" height="53.76" fill="white"/>
</clipPath>
</defs>
</svg>
