<svg width="355" height="94" viewBox="0 0 355 94" fill="none" xmlns="http://www.w3.org/2000/svg">
<g clip-path="url(#clip0_73_49)">
<path d="M25.8306 42.9155C18.6977 42.9155 12.9153 48.6979 12.9153 55.8308H0C0 41.565 11.5648 30.0002 25.8306 30.0002V42.9155ZM51.6612 30.0002C51.6612 44.2659 40.0964 55.8308 25.8306 55.8308V42.9155C32.9635 42.9155 38.7459 37.133 38.7459 30.0002H51.6612ZM25.8306 17.0849C18.6977 17.0849 12.9153 22.8673 12.9153 30.0002H0C0 15.7344 11.5648 4.16956 25.8306 4.16956V17.0849ZM51.6612 4.16956C51.6612 18.4353 40.0964 30.0002 25.8306 30.0002V17.0849C32.9635 17.0849 38.7459 11.3024 38.7459 4.16956H51.6612Z" fill="#F9F9F9"/>
</g>
<path d="M87.4089 31.5392C87.4089 39.9258 92.8602 45.5168 100.967 45.5168C106.349 45.5168 109.843 43.0707 112.079 38.9473H124.799C122.912 49.5004 113.547 56.6989 100.967 56.6989C85.7316 56.6989 75.528 46.635 75.528 31.5392C75.528 16.4434 85.7316 6.37951 100.967 6.37951C113.547 6.37951 122.912 13.578 124.799 24.1311H112.079C109.843 20.0077 106.349 17.5616 100.967 17.5616C92.8602 17.5616 87.4089 23.1526 87.4089 31.5392ZM140.293 18.6798C140.293 24.9697 144.626 28.0448 149.658 28.0448C154.62 28.0448 159.093 24.9697 159.093 18.6798V7.07839H170.974V18.8196C170.974 30.0715 165.033 36.7808 155.598 38.6678V56H143.717V38.5979C134.282 36.7109 128.412 29.9318 128.412 18.8196V7.07839H140.293V18.6798ZM186.302 26.9266V56H174.421V26.7868C174.421 13.4382 182.877 6.37951 195.876 6.37951C208.526 6.37951 216.982 13.4382 216.982 26.7868V56H205.101V26.9266C205.101 20.6367 200.629 17.5616 195.667 17.5616C190.635 17.5616 186.302 20.6367 186.302 26.9266ZM260.733 7.07839V56H248.852V44.8179H232.848V56H220.967V38.528C220.967 18.0508 232.219 7.07839 253.116 7.07839H260.733ZM233.128 33.9853H248.852V18.2605H248.014C239.977 18.2605 234.316 24.3407 233.128 33.9853ZM264.785 50.7584C264.785 47.1941 267.301 44.8179 271.215 44.8179C275.059 44.8179 277.645 47.1941 277.645 50.7584C277.645 54.3227 275.059 56.6989 271.215 56.6989C267.301 56.6989 264.785 54.3227 264.785 50.7584Z" fill="#F9F9F9"/>
<path d="M174.682 74.7091C174.591 73.6239 174.148 72.7461 173.352 72.0756C172.563 71.4052 171.54 71.0699 170.284 71.0699C169.438 71.0699 168.685 71.2262 168.026 71.5387C167.366 71.8512 166.849 72.2773 166.474 72.8171C166.099 73.3569 165.912 73.9762 165.912 74.675C165.912 75.1239 165.997 75.5302 166.168 75.8938C166.344 76.2518 166.591 76.5728 166.909 76.8569C167.227 77.1353 167.605 77.3796 168.043 77.5898C168.48 77.8 168.963 77.9847 169.491 78.1438L171.401 78.7063C172.054 78.9052 172.656 79.1353 173.207 79.3966C173.764 79.658 174.247 79.9705 174.656 80.3341C175.071 80.6921 175.392 81.1125 175.619 81.5955C175.852 82.0785 175.969 82.6353 175.969 83.266C175.969 84.1864 175.73 85.0103 175.253 85.7375C174.781 86.4648 174.108 87.0387 173.233 87.4591C172.364 87.8739 171.338 88.0813 170.156 88.0813C169.031 88.0813 168.051 87.891 167.216 87.5103C166.386 87.1296 165.73 86.6012 165.247 85.925C164.764 85.2432 164.491 84.4591 164.429 83.5728H165.52C165.577 84.2944 165.807 84.9194 166.21 85.4478C166.619 85.9705 167.162 86.3739 167.838 86.658C168.514 86.9421 169.287 87.0841 170.156 87.0841C171.094 87.0841 171.92 86.925 172.636 86.6069C173.352 86.283 173.912 85.8341 174.315 85.2603C174.719 84.6864 174.92 84.0188 174.92 83.2574C174.92 82.6438 174.776 82.1182 174.486 81.6807C174.196 81.2432 173.767 80.8654 173.199 80.5472C172.636 80.229 171.938 79.9449 171.102 79.6949L169.065 79.0813C167.702 78.6665 166.659 78.1012 165.938 77.3853C165.222 76.6694 164.864 75.7773 164.864 74.7091C164.864 73.8114 165.102 73.016 165.58 72.3228C166.057 71.6239 166.705 71.0756 167.523 70.6779C168.347 70.2802 169.276 70.0813 170.31 70.0813C171.349 70.0813 172.267 70.283 173.062 70.6864C173.858 71.0841 174.489 71.6324 174.955 72.3313C175.42 73.0245 175.679 73.8171 175.73 74.7091H174.682ZM184.918 88.0728C183.736 88.0728 182.707 87.7802 181.832 87.1949C180.957 86.6097 180.281 85.8086 179.804 84.7915C179.327 83.7745 179.088 82.6154 179.088 81.3143C179.088 80.0074 179.327 78.8427 179.804 77.8199C180.287 76.7972 180.949 75.9904 181.79 75.3995C182.631 74.8086 183.591 74.5131 184.67 74.5131C185.403 74.5131 186.097 74.6608 186.75 74.9563C187.409 75.2461 187.989 75.6665 188.489 76.2177C188.994 76.7688 189.389 77.4336 189.673 78.212C189.963 78.9904 190.108 79.8654 190.108 80.837V81.4847H179.744V80.5387H189.068C189.068 79.5898 188.875 78.7347 188.489 77.9733C188.102 77.212 187.577 76.6069 186.912 76.158C186.247 75.7091 185.5 75.4847 184.67 75.4847C183.801 75.4847 183.026 75.729 182.344 76.2177C181.668 76.7006 181.131 77.354 180.733 78.1779C180.341 79.0018 180.136 79.9222 180.119 80.9393V81.3654C180.119 82.4563 180.31 83.4364 180.69 84.3057C181.077 85.1694 181.628 85.854 182.344 86.3597C183.06 86.8597 183.918 87.1097 184.918 87.1097C185.634 87.1097 186.244 86.9904 186.75 86.7518C187.261 86.5074 187.679 86.212 188.003 85.8654C188.327 85.5188 188.571 85.1836 188.736 84.8597L189.682 85.2432C189.483 85.6807 189.173 86.1182 188.753 86.5557C188.338 86.9875 187.81 87.3483 187.168 87.6381C186.531 87.9279 185.781 88.0728 184.918 88.0728ZM198.597 88.0728C197.483 88.0728 196.503 87.7802 195.656 87.1949C194.81 86.604 194.148 85.7972 193.67 84.7745C193.199 83.7518 192.963 82.5927 192.963 81.2972C192.963 80.0018 193.202 78.8427 193.679 77.8199C194.156 76.7972 194.818 75.9904 195.665 75.3995C196.511 74.8086 197.486 74.5131 198.588 74.5131C199.418 74.5131 200.173 74.6836 200.855 75.0245C201.543 75.3654 202.111 75.8398 202.56 76.4478C203.014 77.0557 203.304 77.7603 203.429 78.5614H202.372C202.202 77.675 201.776 76.9421 201.094 76.3625C200.418 75.7773 199.585 75.4847 198.597 75.4847C197.71 75.4847 196.92 75.7347 196.227 76.2347C195.534 76.729 194.989 77.4137 194.591 78.2887C194.193 79.158 193.994 80.1552 193.994 81.2802C193.994 82.3881 194.188 83.3824 194.574 84.2631C194.96 85.1381 195.5 85.8313 196.193 86.3427C196.886 86.854 197.688 87.1097 198.597 87.1097C199.239 87.1097 199.824 86.9819 200.352 86.7262C200.886 86.4705 201.332 86.1069 201.69 85.6353C202.048 85.1637 202.284 84.6125 202.398 83.9819H203.455C203.33 84.7887 203.045 85.4989 202.602 86.1125C202.159 86.7262 201.594 87.2063 200.906 87.5529C200.219 87.8995 199.449 88.0728 198.597 88.0728ZM215.386 83.1552V74.7091H216.426V87.8H215.386V85.6779H215.301C214.994 86.354 214.497 86.9052 213.81 87.3313C213.128 87.7574 212.321 87.9705 211.389 87.9705C210.531 87.9705 209.773 87.783 209.114 87.408C208.455 87.033 207.938 86.5018 207.562 85.8143C207.188 85.1211 207 84.2972 207 83.3427V74.7091H208.04V83.3C208.04 84.391 208.369 85.2745 209.028 85.9506C209.693 86.6211 210.551 86.9563 211.602 86.9563C212.284 86.9563 212.912 86.8029 213.486 86.4961C214.06 86.1893 214.52 85.7518 214.866 85.1836C215.213 84.6097 215.386 83.9336 215.386 83.1552ZM220.734 87.8V74.7091H221.749V76.7546H221.842C222.126 76.0841 222.607 75.5472 223.283 75.1438C223.959 74.7347 224.729 74.5302 225.592 74.5302C225.683 74.5302 225.774 74.5302 225.865 74.5302C225.956 74.5302 226.041 74.533 226.121 74.5387V75.587C226.053 75.5813 225.97 75.5728 225.874 75.5614C225.783 75.5444 225.669 75.5358 225.533 75.5358C224.805 75.5358 224.158 75.6921 223.589 76.0046C223.027 76.3171 222.584 76.7489 222.26 77.3C221.936 77.8455 221.774 78.4705 221.774 79.175V87.8H220.734ZM233.621 88.0728C232.439 88.0728 231.411 87.7802 230.536 87.1949C229.661 86.6097 228.984 85.8086 228.507 84.7915C228.03 83.7745 227.791 82.6154 227.791 81.3143C227.791 80.0074 228.03 78.8427 228.507 77.8199C228.99 76.7972 229.652 75.9904 230.493 75.3995C231.334 74.8086 232.294 74.5131 233.374 74.5131C234.107 74.5131 234.8 74.6608 235.453 74.9563C236.112 75.2461 236.692 75.6665 237.192 76.2177C237.697 76.7688 238.092 77.4336 238.376 78.212C238.666 78.9904 238.811 79.8654 238.811 80.837V81.4847H228.447V80.5387H237.771C237.771 79.5898 237.578 78.7347 237.192 77.9733C236.805 77.212 236.28 76.6069 235.615 76.158C234.95 75.7091 234.203 75.4847 233.374 75.4847C232.504 75.4847 231.729 75.729 231.047 76.2177C230.371 76.7006 229.834 77.354 229.436 78.1779C229.044 79.0018 228.839 79.9222 228.822 80.9393V81.3654C228.822 82.4563 229.013 83.4364 229.393 84.3057C229.78 85.1694 230.331 85.854 231.047 86.3597C231.763 86.8597 232.621 87.1097 233.621 87.1097C234.337 87.1097 234.947 86.9904 235.453 86.7518C235.964 86.5074 236.382 86.212 236.706 85.8654C237.03 85.5188 237.274 85.1836 237.439 84.8597L238.385 85.2432C238.186 85.6807 237.876 86.1182 237.456 86.5557C237.041 86.9875 236.513 87.3483 235.871 87.6381C235.234 87.9279 234.484 88.0728 233.621 88.0728ZM249.507 87.8V70.3455H250.538V77.6324H250.641C250.845 77.0699 251.135 76.5529 251.51 76.0813C251.885 75.6097 252.351 75.2319 252.908 74.9478C253.464 74.658 254.115 74.5131 254.859 74.5131C255.911 74.5131 256.828 74.8057 257.612 75.391C258.396 75.9705 259.004 76.7716 259.436 77.7944C259.868 78.8114 260.084 79.9762 260.084 81.2887C260.084 82.6125 259.868 83.7858 259.436 84.8086C259.004 85.8256 258.399 86.6239 257.621 87.2035C256.842 87.783 255.925 88.0728 254.868 88.0728C254.124 88.0728 253.473 87.9307 252.916 87.6466C252.359 87.3569 251.893 86.9762 251.518 86.5046C251.143 86.0273 250.851 85.5074 250.641 84.9449H250.521V87.8H249.507ZM250.53 81.2802C250.53 82.3938 250.697 83.391 251.033 84.2716C251.374 85.1466 251.862 85.8398 252.499 86.3512C253.135 86.8569 253.896 87.1097 254.783 87.1097C255.68 87.1097 256.447 86.854 257.084 86.3427C257.72 85.8256 258.206 85.1268 258.541 84.2461C258.882 83.3654 259.053 82.3768 259.053 81.2802C259.053 80.1836 258.882 79.1978 258.541 78.3228C258.206 77.4478 257.72 76.7574 257.084 76.2518C256.447 75.7404 255.68 75.4847 254.783 75.4847C253.896 75.4847 253.135 75.7375 252.499 76.2432C251.862 76.7432 251.374 77.4307 251.033 78.3057C250.697 79.175 250.53 80.1665 250.53 81.2802ZM264.038 92.7091C263.777 92.7091 263.518 92.6807 263.263 92.6239C263.007 92.5671 262.777 92.4932 262.572 92.4023L262.879 91.4904C263.413 91.6949 263.896 91.7688 264.328 91.712C264.766 91.6552 265.152 91.4563 265.487 91.1154C265.822 90.7745 266.107 90.2745 266.339 89.6154L266.936 87.979L262.138 74.7091H263.254L267.413 86.462H267.499L271.658 74.7091H272.774L267.251 90.0245C267.041 90.6154 266.777 91.1097 266.459 91.5074C266.141 91.9052 265.777 92.2035 265.368 92.4023C264.964 92.6069 264.521 92.7091 264.038 92.7091ZM287.265 88.0728C286.214 88.0728 285.296 87.783 284.512 87.2035C283.728 86.6239 283.12 85.8256 282.688 84.8086C282.262 83.7858 282.049 82.6125 282.049 81.2887C282.049 79.9762 282.265 78.8114 282.697 77.7944C283.134 76.7716 283.745 75.9705 284.529 75.391C285.313 74.8057 286.228 74.5131 287.273 74.5131C288.023 74.5131 288.674 74.658 289.225 74.9478C289.782 75.2319 290.248 75.6097 290.623 76.0813C291.004 76.5529 291.293 77.0699 291.492 77.6324H291.594V70.3455H292.626V87.8H291.62V84.9449H291.492C291.282 85.5074 290.989 86.0273 290.614 86.5046C290.239 86.9762 289.773 87.3569 289.217 87.6466C288.66 87.9307 288.009 88.0728 287.265 88.0728ZM287.359 87.1097C288.245 87.1097 289.004 86.8569 289.634 86.3512C290.271 85.8398 290.756 85.1466 291.092 84.2716C291.433 83.391 291.603 82.3938 291.603 81.2802C291.603 80.1665 291.433 79.175 291.092 78.3057C290.756 77.4307 290.271 76.7432 289.634 76.2432C289.004 75.7375 288.245 75.4847 287.359 75.4847C286.461 75.4847 285.691 75.7404 285.049 76.2518C284.413 76.7574 283.924 77.4478 283.583 78.3228C283.248 79.1978 283.08 80.1836 283.08 81.2802C283.08 82.3768 283.248 83.3654 283.583 84.2461C283.924 85.1268 284.413 85.8256 285.049 86.3427C285.691 86.854 286.461 87.1097 287.359 87.1097ZM302.41 88.0728C301.228 88.0728 300.2 87.7802 299.325 87.1949C298.45 86.6097 297.773 85.8086 297.296 84.7915C296.819 83.7745 296.58 82.6154 296.58 81.3143C296.58 80.0074 296.819 78.8427 297.296 77.8199C297.779 76.7972 298.441 75.9904 299.282 75.3995C300.123 74.8086 301.083 74.5131 302.163 74.5131C302.896 74.5131 303.589 74.6608 304.242 74.9563C304.901 75.2461 305.481 75.6665 305.981 76.2177C306.487 76.7688 306.881 77.4336 307.165 78.212C307.455 78.9904 307.6 79.8654 307.6 80.837V81.4847H297.237V80.5387H306.56C306.56 79.5898 306.367 78.7347 305.981 77.9733C305.594 77.212 305.069 76.6069 304.404 76.158C303.739 75.7091 302.992 75.4847 302.163 75.4847C301.293 75.4847 300.518 75.729 299.836 76.2177C299.16 76.7006 298.623 77.354 298.225 78.1779C297.833 79.0018 297.629 79.9222 297.612 80.9393V81.3654C297.612 82.4563 297.802 83.4364 298.183 84.3057C298.569 85.1694 299.12 85.854 299.836 86.3597C300.552 86.8597 301.41 87.1097 302.41 87.1097C303.126 87.1097 303.737 86.9904 304.242 86.7518C304.754 86.5074 305.171 86.212 305.495 85.8654C305.819 85.5188 306.063 85.1836 306.228 84.8597L307.174 85.2432C306.975 85.6807 306.665 86.1182 306.245 86.5557C305.83 86.9875 305.302 87.3483 304.66 87.6381C304.023 87.9279 303.273 88.0728 302.41 88.0728ZM319.498 77.5302L318.535 77.7858C318.381 77.3086 318.163 76.8966 317.879 76.55C317.594 76.2035 317.237 75.9364 316.805 75.7489C316.379 75.5557 315.867 75.4591 315.271 75.4591C314.31 75.4591 313.523 75.6978 312.91 76.175C312.302 76.6523 311.998 77.2745 311.998 78.0415C311.998 78.6665 312.205 79.1836 312.62 79.5927C313.035 79.9961 313.668 80.3029 314.521 80.5131L316.532 81.016C317.566 81.2716 318.344 81.6864 318.867 82.2603C319.39 82.8285 319.651 83.5358 319.651 84.3824C319.651 85.104 319.455 85.7432 319.063 86.3C318.671 86.8569 318.129 87.2915 317.435 87.604C316.748 87.9165 315.947 88.0728 315.032 88.0728C313.81 88.0728 312.808 87.7887 312.023 87.2205C311.239 86.6466 310.737 85.8256 310.515 84.7574L311.512 84.5018C311.7 85.354 312.089 86.0046 312.68 86.4535C313.276 86.8966 314.058 87.1182 315.023 87.1182C316.092 87.1182 316.952 86.8654 317.606 86.3597C318.265 85.854 318.594 85.2063 318.594 84.4165C318.594 83.8143 318.401 83.3057 318.015 82.891C317.629 82.4762 317.043 82.1722 316.259 81.979L314.171 81.4677C313.103 81.2063 312.302 80.7887 311.768 80.2148C311.234 79.6353 310.967 78.9222 310.967 78.0756C310.967 77.3711 311.151 76.7518 311.521 76.2177C311.89 75.6836 312.398 75.266 313.046 74.9648C313.694 74.6637 314.435 74.5131 315.271 74.5131C316.379 74.5131 317.282 74.7745 317.981 75.2972C318.68 75.8199 319.185 76.5643 319.498 77.5302ZM323.301 87.8V74.7091H324.332V87.8H323.301ZM323.821 72.391C323.594 72.391 323.395 72.3114 323.224 72.1523C323.06 71.9932 322.977 71.8 322.977 71.5728C322.977 71.3455 323.06 71.1523 323.224 70.9932C323.389 70.8341 323.588 70.7546 323.821 70.7546C324.048 70.7546 324.244 70.8341 324.409 70.9932C324.58 71.1523 324.665 71.3455 324.665 71.5728C324.665 71.8 324.582 71.9932 324.418 72.1523C324.253 72.3114 324.054 72.391 323.821 72.391ZM333.409 92.9819C332.597 92.9819 331.866 92.8739 331.219 92.658C330.571 92.4478 330.02 92.1466 329.565 91.7546C329.116 91.3625 328.773 90.8966 328.534 90.3569L329.403 89.8455C329.597 90.266 329.872 90.641 330.23 90.9705C330.588 91.3 331.031 91.5586 331.56 91.7461C332.094 91.9336 332.71 92.0273 333.409 92.0273C334.67 92.0273 335.668 91.7006 336.401 91.0472C337.139 90.3995 337.509 89.4052 337.509 88.0643V84.8086H337.406C337.207 85.3768 336.912 85.8824 336.52 86.3256C336.134 86.7631 335.659 87.1069 335.097 87.3569C334.534 87.6069 333.895 87.7319 333.179 87.7319C332.145 87.7319 331.236 87.4648 330.452 86.9307C329.668 86.3966 329.057 85.6466 328.619 84.6807C328.182 83.7091 327.963 82.5671 327.963 81.2546C327.963 79.9421 328.176 78.7802 328.602 77.7688C329.034 76.7518 329.642 75.9563 330.426 75.3824C331.21 74.8029 332.131 74.5131 333.188 74.5131C333.943 74.5131 334.597 74.658 335.148 74.9478C335.705 75.2319 336.17 75.6097 336.545 76.0813C336.92 76.5529 337.21 77.0699 337.415 77.6324H337.534V74.7091H338.54V88.1069C338.54 89.1978 338.324 90.104 337.892 90.8256C337.466 91.5472 336.866 92.087 336.094 92.4449C335.327 92.8029 334.432 92.9819 333.409 92.9819ZM333.273 86.7688C334.148 86.7688 334.901 86.5472 335.531 86.104C336.168 85.6552 336.656 85.0188 336.997 84.1949C337.344 83.3654 337.517 82.3824 337.517 81.2461C337.517 80.1438 337.349 79.158 337.014 78.2887C336.679 77.4194 336.193 76.7347 335.557 76.2347C334.92 75.7347 334.159 75.4847 333.273 75.4847C332.369 75.4847 331.599 75.7404 330.963 76.2518C330.327 76.7574 329.838 77.4449 329.497 78.3143C329.162 79.1836 328.994 80.1608 328.994 81.2461C328.994 82.337 329.165 83.2972 329.506 84.1268C329.847 84.9506 330.335 85.5983 330.972 86.0699C331.608 86.5358 332.375 86.7688 333.273 86.7688ZM343.954 79.3114V87.8H342.914V74.7091H343.928V76.7802H344.031C344.337 76.104 344.829 75.5614 345.505 75.1523C346.181 74.7432 346.985 74.5387 347.917 74.5387C348.798 74.5387 349.57 74.7262 350.235 75.1012C350.906 75.4762 351.428 76.0103 351.803 76.7035C352.184 77.391 352.374 78.212 352.374 79.1665V87.8H351.335V79.2091C351.335 78.0955 351.002 77.2006 350.337 76.5245C349.678 75.8427 348.806 75.5018 347.721 75.5018C346.994 75.5018 346.346 75.6608 345.778 75.979C345.21 76.2972 344.763 76.7432 344.44 77.3171C344.116 77.8853 343.954 78.55 343.954 79.3114Z" fill="#F9F9F9"/>
<defs>
<clipPath id="clip0_73_49">
<rect width="51.6612" height="51.6612" fill="white" transform="translate(0 4.16956)"/>
</clipPath>
</defs>
</svg>
