<svg width="285" height="94" viewBox="0 0 285 94" fill="none" xmlns="http://www.w3.org/2000/svg">
<g clip-path="url(#clip0_386_158)">
<path d="M25.8306 42.9155C18.6977 42.9155 12.9153 48.6979 12.9153 55.8308H0C0 41.565 11.5648 30.0002 25.8306 30.0002V42.9155ZM51.6612 30.0002C51.6612 44.266 40.0964 55.8308 25.8306 55.8308V42.9155C32.9635 42.9155 38.7459 37.1331 38.7459 30.0002H51.6612ZM25.8306 17.0849C18.6977 17.0849 12.9153 22.8673 12.9153 30.0002H0C0 15.7344 11.5648 4.16959 25.8306 4.16959V17.0849ZM51.6612 4.16959C51.6612 18.4353 40.0964 30.0002 25.8306 30.0002V17.0849C32.9635 17.0849 38.7459 11.3025 38.7459 4.16959H51.6612Z" fill="#0A0A0A"/>
</g>
<path d="M87.4087 31.5393C87.4087 39.9258 92.86 45.5169 100.967 45.5169C106.348 45.5169 109.843 43.0708 112.079 38.9474H124.799C122.912 49.5005 113.547 56.6989 100.967 56.6989C85.7314 56.6989 75.5277 46.6351 75.5277 31.5393C75.5277 16.4434 85.7314 6.37957 100.967 6.37957C113.547 6.37957 122.912 13.578 124.799 24.1311H112.079C109.843 20.0077 106.348 17.5617 100.967 17.5617C92.86 17.5617 87.4087 23.1527 87.4087 31.5393ZM140.293 18.6799C140.293 24.9698 144.626 28.0449 149.658 28.0449C154.62 28.0449 159.092 24.9698 159.092 18.6799V7.07845H170.973V18.8196C170.973 30.0716 165.033 36.7809 155.598 38.6678V56.0001H143.717V38.5979C134.282 36.711 128.412 29.9318 128.412 18.8196V7.07845H140.293V18.6799ZM186.301 26.9266V56.0001H174.42V26.7869C174.42 13.4383 182.877 6.37957 195.876 6.37957C208.526 6.37957 216.982 13.4383 216.982 26.7869V56.0001H205.101V26.9266C205.101 20.6367 200.628 17.5617 195.666 17.5617C190.634 17.5617 186.301 20.6367 186.301 26.9266ZM260.733 7.07845V56.0001H248.852V44.818H232.848V56.0001H220.967V38.5281C220.967 18.0509 232.219 7.07845 253.115 7.07845H260.733ZM233.127 33.9853H248.852V18.2605H248.014C239.976 18.2605 234.315 24.3408 233.127 33.9853ZM264.785 50.7585C264.785 47.1942 267.301 44.818 271.215 44.818C275.059 44.818 277.644 47.1942 277.644 50.7585C277.644 54.3227 275.059 56.6989 271.215 56.6989C267.301 56.6989 264.785 54.3227 264.785 50.7585Z" fill="#0A0A0A"/>
<path d="M165.273 87.8V70.3455H170.94C171.997 70.3455 172.889 70.533 173.616 70.908C174.344 71.283 174.895 71.8086 175.27 72.4847C175.651 73.1608 175.841 73.9478 175.841 74.8455C175.841 75.55 175.727 76.175 175.5 76.7205C175.273 77.266 174.955 77.7177 174.545 78.0756C174.142 78.4279 173.668 78.6722 173.122 78.8086V78.9108C173.724 78.9563 174.284 79.1665 174.801 79.5415C175.318 79.9108 175.733 80.4137 176.045 81.05C176.364 81.6864 176.523 82.4279 176.523 83.2745C176.523 84.1665 176.33 84.9535 175.943 85.6353C175.563 86.3114 174.991 86.8427 174.23 87.229C173.469 87.6097 172.526 87.8 171.401 87.8H165.273ZM166.338 86.8114H171.401C172.713 86.8114 173.722 86.4819 174.426 85.8228C175.136 85.1637 175.491 84.3143 175.491 83.2745C175.491 82.5415 175.318 81.8853 174.972 81.3057C174.631 80.7262 174.156 80.2688 173.548 79.9336C172.94 79.5927 172.236 79.4222 171.435 79.4222H166.338V86.8114ZM166.338 78.4506H171.307C172.051 78.4506 172.682 78.2887 173.199 77.9648C173.722 77.641 174.119 77.2063 174.392 76.6608C174.67 76.1154 174.81 75.5103 174.81 74.8455C174.81 73.766 174.474 72.9108 173.804 72.2802C173.134 71.6495 172.179 71.3341 170.94 71.3341H166.338V78.4506ZM183.82 88.0813C183.065 88.0813 182.371 87.9307 181.741 87.6296C181.116 87.3285 180.613 86.8881 180.232 86.3086C179.857 85.729 179.67 85.0245 179.67 84.1949C179.67 83.6495 179.766 83.1694 179.96 82.7546C180.153 82.3398 180.451 81.9819 180.854 81.6807C181.258 81.3796 181.775 81.1324 182.406 80.9393C183.036 80.7404 183.789 80.587 184.664 80.479C185.329 80.3995 185.923 80.3228 186.445 80.2489C186.968 80.1694 187.377 80.0472 187.673 79.8824C187.974 79.7177 188.124 79.4677 188.124 79.1324V78.587C188.124 77.6324 187.823 76.8739 187.221 76.3114C186.619 75.7489 185.789 75.4677 184.732 75.4677C183.795 75.4677 183.005 75.675 182.363 76.0898C181.727 76.4989 181.281 77.0273 181.025 77.675L180.045 77.3086C180.295 76.6836 180.656 76.1637 181.127 75.7489C181.604 75.3341 182.15 75.0245 182.763 74.8199C183.383 74.6154 184.031 74.5131 184.707 74.5131C185.292 74.5131 185.849 74.5955 186.377 74.7603C186.911 74.925 187.386 75.175 187.8 75.5103C188.221 75.8455 188.553 76.2745 188.798 76.7972C189.042 77.3143 189.164 77.9336 189.164 78.6552V87.8H188.124V85.4393H188.048C187.82 85.9279 187.508 86.3739 187.11 86.7773C186.718 87.175 186.244 87.4932 185.687 87.7319C185.136 87.9648 184.513 88.0813 183.82 88.0813ZM183.923 87.1182C184.741 87.1182 185.465 86.9194 186.096 86.5216C186.732 86.1182 187.229 85.5671 187.587 84.8682C187.945 84.1694 188.124 83.3768 188.124 82.4904V80.5643C187.994 80.6779 187.803 80.7802 187.553 80.8711C187.309 80.9563 187.031 81.033 186.718 81.1012C186.411 81.1637 186.087 81.2205 185.746 81.2716C185.411 81.3171 185.085 81.3597 184.766 81.3995C183.812 81.5131 183.033 81.6893 182.431 81.9279C181.835 82.1608 181.397 82.4677 181.119 82.8483C180.846 83.229 180.71 83.6893 180.71 84.229C180.71 85.1211 181.016 85.8256 181.63 86.3427C182.244 86.8597 183.008 87.1182 183.923 87.1182ZM198.433 88.0728C197.319 88.0728 196.339 87.7802 195.492 87.1949C194.646 86.604 193.984 85.7972 193.506 84.7745C193.035 83.7518 192.799 82.5927 192.799 81.2972C192.799 80.0018 193.038 78.8427 193.515 77.8199C193.992 76.7972 194.654 75.9904 195.501 75.3995C196.347 74.8086 197.322 74.5131 198.424 74.5131C199.254 74.5131 200.009 74.6836 200.691 75.0245C201.379 75.3654 201.947 75.8398 202.396 76.4478C202.85 77.0557 203.14 77.7603 203.265 78.5614H202.208C202.038 77.675 201.612 76.9421 200.93 76.3625C200.254 75.7773 199.421 75.4847 198.433 75.4847C197.546 75.4847 196.756 75.7347 196.063 76.2347C195.37 76.729 194.825 77.4137 194.427 78.2887C194.029 79.158 193.83 80.1552 193.83 81.2802C193.83 82.3881 194.023 83.3824 194.41 84.2631C194.796 85.1381 195.336 85.8313 196.029 86.3427C196.722 86.854 197.523 87.1097 198.433 87.1097C199.075 87.1097 199.66 86.9819 200.188 86.7262C200.722 86.4705 201.168 86.1069 201.526 85.6353C201.884 85.1637 202.12 84.6125 202.234 83.9819H203.29C203.165 84.7887 202.881 85.4989 202.438 86.1125C201.995 86.7262 201.43 87.2063 200.742 87.5529C200.055 87.8995 199.285 88.0728 198.433 88.0728ZM207.739 82.6864L207.722 81.1949H207.995L214.54 74.7091H215.896L209.887 80.675L209.785 80.7177L207.739 82.6864ZM206.836 87.8V70.3455H207.876V87.8H206.836ZM214.839 87.8L209.316 80.8199L210.066 80.1296L216.168 87.8H214.839ZM233.227 79.0728C233.227 80.8739 232.914 82.4478 232.289 83.7944C231.664 85.1353 230.795 86.1779 229.681 86.9222C228.573 87.6665 227.295 88.0387 225.846 88.0387C224.391 88.0387 223.107 87.6665 221.994 86.9222C220.886 86.1722 220.019 85.1268 219.394 83.7858C218.769 82.4393 218.457 80.8682 218.457 79.0728C218.457 77.2716 218.769 75.7006 219.394 74.3597C220.025 73.0188 220.894 71.9762 222.002 71.2319C223.11 70.4819 224.391 70.1069 225.846 70.1069C227.295 70.1069 228.573 70.479 229.681 71.2233C230.795 71.9677 231.664 73.0131 232.289 74.3597C232.914 75.7006 233.227 77.2716 233.227 79.0728ZM232.187 79.0728C232.187 77.4535 231.914 76.05 231.369 74.8625C230.829 73.675 230.082 72.7574 229.127 72.1097C228.173 71.4563 227.079 71.1296 225.846 71.1296C224.613 71.1296 223.519 71.4535 222.565 72.1012C221.61 72.7432 220.86 73.6608 220.315 74.854C219.775 76.0415 219.505 77.4478 219.505 79.0728C219.505 80.6807 219.772 82.0813 220.306 83.2745C220.846 84.462 221.593 85.3824 222.548 86.0358C223.502 86.6893 224.602 87.016 225.846 87.016C227.079 87.016 228.173 86.6921 229.127 86.0444C230.082 85.391 230.829 84.4705 231.369 83.283C231.914 82.0955 232.187 80.6921 232.187 79.0728ZM241.967 74.7091V75.6381H236.163V74.7091H241.967ZM238.072 87.8V72.6722C238.072 72.0131 238.222 71.4506 238.523 70.9847C238.825 70.5188 239.219 70.1637 239.708 69.9194C240.202 69.675 240.734 69.5529 241.302 69.5529C241.603 69.5529 241.859 69.5785 242.069 69.6296C242.285 69.675 242.472 69.729 242.631 69.7915L242.325 70.712C242.194 70.6665 242.052 70.6268 241.898 70.5927C241.751 70.5586 241.575 70.5415 241.37 70.5415C240.711 70.5415 240.168 70.7432 239.742 71.1466C239.316 71.55 239.103 72.1125 239.103 72.8341L239.094 87.8H238.072ZM250.146 74.7091V75.6381H244.342V74.7091H250.146ZM246.251 87.8V72.6722C246.251 72.0131 246.402 71.4506 246.703 70.9847C247.004 70.5188 247.399 70.1637 247.888 69.9194C248.382 69.675 248.913 69.5529 249.482 69.5529C249.783 69.5529 250.038 69.5785 250.249 69.6296C250.464 69.675 250.652 69.729 250.811 69.7915L250.504 70.712C250.374 70.6665 250.232 70.6268 250.078 70.5927C249.93 70.5586 249.754 70.5415 249.55 70.5415C248.891 70.5415 248.348 70.7432 247.922 71.1466C247.496 71.55 247.283 72.1125 247.283 72.8341L247.274 87.8H246.251ZM253.434 87.8V74.7091H254.465V87.8H253.434ZM253.954 72.391C253.727 72.391 253.528 72.3114 253.357 72.1523C253.192 71.9932 253.11 71.8 253.11 71.5728C253.11 71.3455 253.192 71.1523 253.357 70.9932C253.522 70.8341 253.721 70.7546 253.954 70.7546C254.181 70.7546 254.377 70.8341 254.542 70.9932C254.712 71.1523 254.798 71.3455 254.798 71.5728C254.798 71.8 254.715 71.9932 254.55 72.1523C254.386 72.3114 254.187 72.391 253.954 72.391ZM263.729 88.0728C262.616 88.0728 261.636 87.7802 260.789 87.1949C259.942 86.604 259.281 85.7972 258.803 84.7745C258.332 83.7518 258.096 82.5927 258.096 81.2972C258.096 80.0018 258.335 78.8427 258.812 77.8199C259.289 76.7972 259.951 75.9904 260.798 75.3995C261.644 74.8086 262.619 74.5131 263.721 74.5131C264.55 74.5131 265.306 74.6836 265.988 75.0245C266.675 75.3654 267.244 75.8398 267.692 76.4478C268.147 77.0557 268.437 77.7603 268.562 78.5614H267.505C267.335 77.675 266.908 76.9421 266.227 76.3625C265.55 75.7773 264.718 75.4847 263.729 75.4847C262.843 75.4847 262.053 75.7347 261.36 76.2347C260.667 76.729 260.121 77.4137 259.724 78.2887C259.326 79.158 259.127 80.1552 259.127 81.2802C259.127 82.3881 259.32 83.3824 259.707 84.2631C260.093 85.1381 260.633 85.8313 261.326 86.3427C262.019 86.854 262.82 87.1097 263.729 87.1097C264.371 87.1097 264.957 86.9819 265.485 86.7262C266.019 86.4705 266.465 86.1069 266.823 85.6353C267.181 85.1637 267.417 84.6125 267.531 83.9819H268.587C268.462 84.7887 268.178 85.4989 267.735 86.1125C267.292 86.7262 266.727 87.2063 266.039 87.5529C265.352 87.8995 264.582 88.0728 263.729 88.0728ZM277.238 88.0728C276.056 88.0728 275.028 87.7802 274.153 87.1949C273.278 86.6097 272.602 85.8086 272.124 84.7915C271.647 83.7745 271.408 82.6154 271.408 81.3143C271.408 80.0074 271.647 78.8427 272.124 77.8199C272.607 76.7972 273.269 75.9904 274.11 75.3995C274.951 74.8086 275.911 74.5131 276.991 74.5131C277.724 74.5131 278.417 74.6608 279.07 74.9563C279.729 75.2461 280.309 75.6665 280.809 76.2177C281.315 76.7688 281.71 77.4336 281.994 78.212C282.283 78.9904 282.428 79.8654 282.428 80.837V81.4847H272.065V80.5387H281.388C281.388 79.5898 281.195 78.7347 280.809 77.9733C280.423 77.212 279.897 76.6069 279.232 76.158C278.567 75.7091 277.82 75.4847 276.991 75.4847C276.121 75.4847 275.346 75.729 274.664 76.2177C273.988 76.7006 273.451 77.354 273.053 78.1779C272.661 79.0018 272.457 79.9222 272.44 80.9393V81.3654C272.44 82.4563 272.63 83.4364 273.011 84.3057C273.397 85.1694 273.948 85.854 274.664 86.3597C275.38 86.8597 276.238 87.1097 277.238 87.1097C277.954 87.1097 278.565 86.9904 279.07 86.7518C279.582 86.5074 279.999 86.212 280.323 85.8654C280.647 85.5188 280.891 85.1836 281.056 84.8597L282.002 85.2432C281.803 85.6807 281.494 86.1182 281.073 86.5557C280.658 86.9875 280.13 87.3483 279.488 87.6381C278.852 87.9279 278.102 88.0728 277.238 88.0728Z" fill="#0A0A0A"/>
<defs>
<clipPath id="clip0_386_158">
<rect width="51.6612" height="51.6612" fill="white" transform="translate(0 4.16959)"/>
</clipPath>
</defs>
</svg>
